<svg xmlns="http://www.w3.org/2000/svg" viewBox="0 0 150 150" fill="#ffc50f">
  <circle cx="75" cy="75" r="73" fill="#000" fill-opacity="0.2"/>
  <circle cx="75" cy="75" r="73" class="theo-play-svg-circle" stroke-width="4" stroke="#ffc50f" fill="none" transform="rotate(-90,75,75)"/>
  <g transform="translate(85,75) scale(0.5625) translate(-75,-75)">
    <path d="m 123.89639,85.432 c -12.865,9.167 -29.482997,19.402 -49.848997,30.7 -19.634,11.035 -36.851,19.7 -51.65,26 l -16.3990002,6.099 c -1.033,-4.433 -2,-11.002 -2.9,-19.7 -2.033,-17.333 -3.04999998,-36.466 -3.04999998,-57.399 0,-19.167 1.38199998,-37.081 4.14799998,-53.75 l 4.0019995,-19.1499994 17.3990007,5.849 c 15.068,5.9999994 31.401,14.5169994 49,25.5509994 18.631,11.666 34.616997,22.766 47.948997,33.3 6.663,5.3 11.463,9.383 14.396,12.25 l -13.046,10.25"/>
  </g>
</svg>
